PathFileType	4	(X/Y/Z)	C:/Users/beibeiliu/ov580/test_trc\sequence.16_training_dense_right.trc
DataRate	CameraRate	NumFrames	NumMarkers	Units	OrigDataRate	OrigDataStartFrame	OrigNumFrames
120	120	12	19	mm	120	59	88
Frame#	Time	ThumbCMC			ThumbMCP			ThumbIP			ThumbTip			IndexMCP			IndexPIP			IndexTip			MiddleMCP			MiddlePIP			MiddleTip			RingMCP			RingPIP			RingTip			PinkyMCP			PinkyPIP			PinkyTip			BackHand1			BackHand2			BackHand3	
		X0	Y0	Z0	X1	Y1	Z1	X2	Y2	Z2	X3	Y3	Z3	X4	Y4	Z4	X5	Y5	Z5	X6	Y6	Z6	X7	Y7	Z7	X8	Y8	Z8	X9	Y9	Z9	X10	Y10	Z10	X11	Y11	Z11	X12	Y12	Z12	X13	Y13	Z13	X14	Y14	Z14	X15	Y15	Z15	X16	Y16	Z16	X17	Y17	Z17	X18	Y18	Z18	
58	0.483333	137.084	107.618	-7.10182	110.964	113.009	1.72351	89.3217	115.641	1.54737	69.1281	111.565	3.30889	105.479	65.5666	-43.074	83.5044	57.5329	-53.4795	65.5236	47.5003	-57.7443	116.615	41.5468	-36.8506	97.3466	20.4377	-43.8096	75.7196	6.59189	-48.1804	125.763	31.2964	-24.2587	112.131	10.1505	-25.1157	97.8812	-1.09068	-29.2755	140.472	22.2023	-3.52691	129.018	7.62934	-3.20315	119.774	-9.45458	-4.26225	160.402	59.6601	-12.6422	180.318	75.3425	-4.79329	157.527	86.6994	-22.6248	
59	0.491667	145.457	101.644	-4.59801	119.759	115.821	1.32332	96.8866	114.726	2.14612	80.8062	122.035	3.68061	103.345	69.8262	-40.8408	82.6718	61.5953	-47.7903	60.9258	53.3375	-52.5374	106.72	38.9335	-33.3348	86.1432	25.416	-38.9421	65.4079	14.8508	-39.7388	117.807	25.725	-17.0268	99.6554	10.7143	-18.8167	82.1602	0.889343	-18.4187	130.806	19.191	5.18275	117.048	6.58332	9.4463	101.521	-4.37752	10.1454	152.085	49.2653	-11.512	178.77	61.2273	-2.52528	160.422	75.714	-20.0306	
60	0.5	150.657	99.1238	-1.82998	125.693	108.981	4.34404	106.158	120.693	3.53438	89.698	132.284	3.80001	99.6705	68.2957	-39.0786	75.8419	69.2573	-46.8366	54.0016	67.9501	-52.0051	101.604	44.1906	-30.0046	77.1509	36.1782	-36.4375	48.2752	23.4687	-33.9319	104.245	24.3587	-12.9101	85.2469	16.3928	-13.2025	63.6719	9.19693	-12.4351	117.645	17.9396	12.887	96.8815	9.87255	14.788	86.3708	-0.400719	22.5321	146.983	40.7478	-7.57529	172.087	48.0136	0.304653	155.182	66.1069	-18.8537	
61	0.508333	148.903	90.4849	0.67285	133.279	111.291	7.70544	114.278	125.37	5.52166	100.236	134.09	5.16257	101.121	74.2855	-34.7994	74.7104	74.7656	-43.8807	56.189	82.3468	-49.2508	93.1041	45.9159	-24.2752	65.8822	45.2378	-34.9086	40.0814	43.3375	-34.8011	92.0352	32.7773	-11.0286	72.3584	27.276	-12.1578	49.8777	23.738	-10.3253	97.1964	20.5266	14.1074	84.2286	17.446	21.1093	61.4835	10.0553	25.5345	134.505	36.1647	-3.00838	160.702	37.3377	4.88006	151.359	61.6944	-14.8134	
62	0.516667	150.891	81.726	4.20825	136.851	104.117	9.80529	121.896	124.362	5.02335	114.92	138.771	3.9752	98.7521	74.3454	-32.4888	78.5279	81.6076	-42.3413	58.4414	95.3021	-51.9647	81.1478	51.0954	-27.5815	60.2559	56.6274	-35.1003	31.1634	59.2359	-35.9269	80.749	37.0259	-6.69531	55.3247	40.5778	-13.3534	32.276	42.1836	-12.0161	83.5893	25.769	18.8432	63.4666	28.615	21.8848	43.4104	29.2749	25.0326	124.866	32.4385	0.72564	148.464	25.019	11.232	142.291	51.4292	-8.99045	
63	0.525	148.658	71.7599	5.63786	141.631	97.0743	8.63468	136.296	118.603	3.82443	130.036	138.702	1.19069	99.0112	74.6967	-35.5166	85.4135	91.3817	-51.7315	64.8428	103.238	-57.367	78.3664	57.2416	-28.2907	59.4111	65.5411	-38.4962	29.6065	76.3354	-44.041	70.9602	45.1936	-8.73706	48.5289	52.5965	-14.2632	29.7298	61.2439	-16.9822	68.6982	35.853	16.533	53.4776	44.0813	16.457	33.2316	47.5999	21.0084	109.019	29.064	-0.931704	132.671	18.5859	14.8145	135.433	44.6334	-7.42548	
64	0.533333	146.171	59.7586	8.44828	145.035	91.9179	4.28311	145.283	110.562	1.40131	139.828	131.717	-4.81043	104.883	74.3002	-41.5124	90.6684	92.8794	-60.0044	75.8323	108.345	-67.6566	78.1931	63.3303	-36.887	56.9809	72.8288	-46.7567	38.377	89.1688	-57.0576	64.3203	54.0294	-16.1987	40.6582	65.6077	-24.503	30.0569	77.2863	-29.5583	57.2393	48.7798	8.72046	41.6802	59.7579	10.5812	25.675	66.9689	13.7046	95.5895	30.7786	-0.871915	115.251	16.1503	15.419	125.921	36.8929	-5.09674	
65	0.541667	138.711	60.9864	6.43453	138.692	88.274	3.15246	143.813	107.714	-5.0474	142.862	127.223	-10.6574	101.733	73.4237	-45.3456	88.7751	90.166	-64.7919	82.4026	107.164	-75.5761	70.0358	65.4277	-42.4863	57.3028	77.7458	-55.6695	43.4648	95.6996	-68.2919	58.9291	64.4502	-25.5122	43.1543	77.1451	-35.6303	29.7342	92.735	-44.1826	47.888	63.05	1.4333	33.5753	77.16	2.61788	22.5341	87.4645	-0.554291	86.7415	36.0167	0.417876	103.124	23.1651	18.4268	113.227	36.7884	-7.03833	
66	0.55	129.841	66.6217	7.20479	132.136	92.5605	2.01374	138.402	112.88	-11.9654	137.774	129.756	-19.228	94.1461	76.0741	-49.8364	91.6663	88.0385	-69.1893	83.9996	110.275	-85.1689	68.5314	69.6544	-43.3549	54.8567	81.1511	-62.9106	39.8957	100.337	-79.0163	50.1155	71.6808	-30.0557	36.4944	85.4628	-44.1066	29.3317	99.1412	-54.2086	40.4739	74.4588	-3.7025	31.0947	86.7244	-7.61869	15.2902	102.543	-10.835	72.1977	46.0655	-0.177143	86.3953	35.1682	21.3533	104.094	43.373	-0.762216	
67	0.558333	122.44	73.278	9.95939	124.315	98.7252	-1.19191	128.119	115.223	-17.4134	135.499	129.8	-26.7649	89.815	72.6818	-49.5647	88.9656	83.6411	-72.6709	82.3821	101.3	-89.3458	65.3471	70.4814	-49.0994	52.8048	77.5798	-66.4816	41.7662	91.958	-85.7001	47.8093	73.7907	-28.1864	37.0928	83.8039	-48.2375	28.6751	98.0277	-63.5129	34.1857	83.0442	-6.37063	23.2985	96.4367	-20.9555	12.0712	106.756	-26.2737	66.6323	55.3053	5.76165	74.432	45.8054	30.2561	96.2887	49.9167	1.73313	
68	0.566667	118.032	77.4222	13.5787	120.588	98.2545	-2.22408	132.994	111.017	-21.1537	137.722	121.811	-35.8779	91.214	61.9999	-44.0866	88.8786	65.3395	-69.4587	91.7474	79.5643	-90.9802	63.287	59.4476	-46.4747	56.4661	63.3044	-67.3388	48.7892	72.8533	-91.8946	46.7079	69.2738	-30.907	41.1837	73.6423	-53.607	34.8522	83.0509	-75.9975	34.6515	83.5372	-14.8446	28.2155	90.1782	-27.5417	13.836	98.5123	-44.2106	65.1323	59.893	9.00312	68.8484	57.3979	32.1369	87.9996	53.219	10.4889	
69	0.575	116.933	78.2047	13.0164	123.863	94.9639	-6.25359	135.375	101.607	-29.0707	141.475	109.367	-41.7495	103.422	44.8665	-40.0387	103.192	42.8889	-63.3603	104.89	49.6875	-86.3049	75.9488	43.5128	-38.4342	71.3769	38.6844	-62.6765	61.1007	43.0244	-89.0336	56.949	56.5934	-28.3311	52.8162	53.281	-51.9445	43.4509	57.008	-75.1565	42.4532	72.0848	-21.2468	31.8681	76.8158	-31.136	21.8768	77.3176	-47.5073	66.1303	59.3677	10.3226	75.7532	63.9599	38.0766	96.7778	56.069	20.666	
